<?xml version="1.0" standalone="no"?><!DOCTYPE svg PUBLIC "-//W3C//DTD SVG 1.1//EN" "http://www.w3.org/Graphics/SVG/1.1/DTD/svg11.dtd"><svg class="icon" height="512" viewBox="0 0 1024 1024" version="1.1" xmlns="http://www.w3.org/2000/svg"><path d="M95.833619 808.309341c0 6.633753 2.017054 12.796519 5.470619 17.909802 4.605436 6.816005 11.765466 11.765466 20.10706 13.472284 2.085654 0.42696 4.244005 0.651191 6.455597 0.651191h176.184043V311.791511h-208.217319V808.309341z m827.397635-610.528484c-4.605436-6.817028-11.765466-11.765466-20.10706-13.472284a32.15819 32.15819 0 0 0-6.455597-0.650167H127.867919c-2.211592 0-4.370966 0.224231-6.455597 0.650167-8.34057 1.706817-15.501624 6.655255-20.10706 13.472284a31.886861 31.886861 0 0 0-5.470619 17.909802v64.066552H928.702897v-64.066552a31.898123 31.898123 0 0 0-5.471643-17.909802z m-587.147039 642.561761h560.584382a32.149999 32.149999 0 0 0 6.455597-0.651191c8.34057-1.706817 15.501624-6.655255 20.10706-13.472284a31.889932 31.889932 0 0 0 5.470619-17.909802V311.791511H336.084215v528.551107z" fill="#FFFFFF" /><path d="M127.867919 503.991169v16.016638h128.133105v-16.016638H127.867919z m0 144.150767h112.116467v-16.016638H127.867919v16.016638z" fill="#85AB70" /><path d="M127.867919 423.909002h144.149743v-16.017662H127.867919v16.017662z m584.608828 32.033276c0-8.846369-7.170269-16.016638-16.016639-16.016638-7.417025 0-13.639176 5.048779-15.460668 11.893452l-0.014334-0.004095-64.066553 240.250596 0.014335 0.004095a15.968516 15.968516 0 0 0-0.55597 4.123186c0 8.845345 7.171293 16.016638 16.016638 16.016639 7.418049 0 13.6402-5.049802 15.461692-11.894476l0.014335 0.004095 64.066552-240.250596-0.014334-0.004095c0.350169-1.31774 0.554946-2.694866 0.554946-4.122163z m-584.608828 0h128.133105V439.92564H127.867919v16.016638z m0 32.033277h72.075383v-16.016638h-72.075383v16.016638z" fill="#F7D54A" /><path d="M576.334811 479.966724c-4.423185 0-8.426576 1.792823-11.325196 4.691442l-80.083191 80.084215a15.966468 15.966468 0 0 0-4.691442 11.325195c0 4.425232 1.794871 8.430672 4.695538 11.329292l80.079095 80.079095a15.966468 15.966468 0 0 0 11.325196 4.690418c8.846369 0 16.016638-7.170269 16.016638-16.016638 0-4.425232-1.794871-8.430672-4.695538-11.329291l-68.752876-68.753899 68.757995-68.757996a15.966468 15.966468 0 0 0 4.691443-11.325195c-0.001024-8.845345-7.171293-16.016638-16.017662-16.016638z m267.592429 84.774633l-80.084214-80.084215a15.966468 15.966468 0 0 0-11.325196-4.690418c-8.845345 0-16.016638 7.171293-16.016638 16.016638a15.962372 15.962372 0 0 0 4.691442 11.325195l68.757996 68.757996-68.755948 68.755947a15.968516 15.968516 0 0 0-4.694514 11.328267c0 8.846369 7.171293 16.016638 16.016638 16.016638 4.424208 0 8.428624-1.793847 11.327243-4.69349l80.079096-80.079095a15.968516 15.968516 0 0 0 4.694514-11.328267 15.962372 15.962372 0 0 0-4.690419-11.325196zM239.984386 375.858064H127.867919V391.874702h112.116467v-16.016638z m-32.033277 160.166381h-80.08319v16.017662h80.08319v-16.017662z m-80.08319 48.050939h144.149743v-16.016639H127.867919v16.016639z" fill="#86AEDD" /><path d="M127.867919 343.824788v16.016638h144.149743v-16.016638H127.867919z m0 272.283872h96.099829V600.092022h-96.099829v16.016638z" fill="#EE6A56" /><path d="M384.135153 311.791511v528.551107h16.016638V311.791511h-16.016638z m-240.250596-96.099828c-8.846369 0-16.016638 7.171293-16.016638 16.016638 0 8.846369 7.170269 16.016638 16.016638 16.016638s16.016638-7.170269 16.016638-16.016638c0-8.845345-7.171293-16.016638-16.016638-16.016638z m48.049914 0c-8.845345 0-16.016638 7.171293-16.016638 16.016638 0 8.846369 7.171293 16.016638 16.016638 16.016638 8.846369 0 16.016638-7.170269 16.016638-16.016638 0-8.845345-7.171293-16.016638-16.016638-16.016638z m48.049915 0c-8.845345 0-16.016638 7.171293-16.016638 16.016638 0 8.846369 7.171293 16.016638 16.016638 16.016638 8.846369 0 16.016638-7.170269 16.016638-16.016638 0-8.845345-7.171293-16.016638-16.016638-16.016638z" fill="" /><path d="M896.668597 151.624106H127.867919c-35.382405 0-64.066553 28.684147-64.066553 64.067577V808.309341c0 35.382405 28.684147 64.066553 64.066553 64.066553h768.801702c35.382405 0 64.066553-28.684147 64.066553-64.066553V215.691683c-0.001024-35.383429-28.684147-64.067576-64.067577-64.067577zM127.867919 840.342618c-17.691715 0-32.033276-14.342586-32.033276-32.034301V311.791511h208.217319v528.551107H127.867919z m800.833954-32.034301c0 17.691715-14.341562 32.0343-32.033276 32.034301H336.084215V311.791511h592.617658v496.516806z m0-528.550082H95.833619v-64.066552c0-17.691715 14.341562-32.033276 32.033276-32.033277h768.801702c17.691715 0 32.033276 14.341562 32.033276 32.033277v64.066552z" fill="" /></svg>